<svg version="1.1" xmlns="http://www.w3.org/2000/svg" xmlns:xlink="http://www.w3.org/1999/xlink" width="24px" height="24px" viewBox="0,0,256,256"><g fill="#3c4fe0" fill-rule="nonzero" stroke="none" stroke-width="1" stroke-linecap="butt" stroke-linejoin="miter" stroke-miterlimit="10" stroke-dasharray="" stroke-dashoffset="0" font-family="none" font-weight="none" font-size="none" text-anchor="none" style="mix-blend-mode: normal"><g transform="translate(0,245.33333) scale(0.26667,0.26667)"><path d="M240,-200v40c0,11.33333 -3.83333,20.83333 -11.5,28.5c-7.66667,7.66667 -17.16667,11.5 -28.5,11.5h-40c-11.33333,0 -20.83333,-3.83333 -28.5,-11.5c-7.66667,-7.66667 -11.5,-17.16667 -11.5,-28.5v-320l84,-240c4,-12 11.16667,-21.66667 21.5,-29c10.33333,-7.33333 21.83333,-11 34.5,-11h440c12.66667,0 24.16667,3.66667 34.5,11c10.33333,7.33333 17.5,17 21.5,29l84,240v320c0,11.33333 -3.83333,20.83333 -11.5,28.5c-7.66667,7.66667 -17.16667,11.5 -28.5,11.5h-40c-11.33333,0 -20.83333,-3.83333 -28.5,-11.5c-7.66667,-7.66667 -11.5,-17.16667 -11.5,-28.5v-40zM232,-560h496l-42,-120h-412zM200,-480v200zM300,-320c16.66667,0 30.83333,-5.83333 42.5,-17.5c11.66667,-11.66667 17.5,-25.83333 17.5,-42.5c0,-16.66667 -5.83333,-30.83333 -17.5,-42.5c-11.66667,-11.66667 -25.83333,-17.5 -42.5,-17.5c-16.66667,0 -30.83333,5.83333 -42.5,17.5c-11.66667,11.66667 -17.5,25.83333 -17.5,42.5c0,16.66667 5.83333,30.83333 17.5,42.5c11.66667,11.66667 25.83333,17.5 42.5,17.5zM660,-320c16.66667,0 30.83333,-5.83333 42.5,-17.5c11.66667,-11.66667 17.5,-25.83333 17.5,-42.5c0,-16.66667 -5.83333,-30.83333 -17.5,-42.5c-11.66667,-11.66667 -25.83333,-17.5 -42.5,-17.5c-16.66667,0 -30.83333,5.83333 -42.5,17.5c-11.66667,11.66667 -17.5,25.83333 -17.5,42.5c0,16.66667 5.83333,30.83333 17.5,42.5c11.66667,11.66667 25.83333,17.5 42.5,17.5zM200,-280h560v-200h-560z"></path></g></g></svg>