<svg version="1.1" xmlns="http://www.w3.org/2000/svg" xmlns:xlink="http://www.w3.org/1999/xlink" width="24px" height="24px" viewBox="0,0,256,256"><g fill="#3c4fe0" fill-rule="nonzero" stroke="none" stroke-width="1" stroke-linecap="butt" stroke-linejoin="miter" stroke-miterlimit="10" stroke-dasharray="" stroke-dashoffset="0" font-family="none" font-weight="none" font-size="none" text-anchor="none" style="mix-blend-mode: normal"><g transform="translate(-5.33333,253.33333) scale(0.26667,0.26667)"><path d="M280,-40l112,-564l-72,28v136h-80v-188l202,-86c9.33333,-4 19.16667,-6.33333 29.5,-7c10.33333,-0.66667 20.16667,0.66667 29.5,4c9.33333,3.33333 18.16667,8 26.5,14c8.33333,6 15.16667,13.66667 20.5,23l40,64c17.33333,28 40.83333,51 70.5,69c29.66667,18 63.5,27 101.5,27v80c-46.66667,0 -88.33333,-9.66667 -125,-29c-36.66667,-19.33333 -68,-44 -94,-74l-25,123l84,80v300h-80v-260l-84,-64l-72,324zM540,-740c-22,0 -40.83333,-7.83333 -56.5,-23.5c-15.66667,-15.66667 -23.5,-34.5 -23.5,-56.5c0,-22 7.83333,-40.83333 23.5,-56.5c15.66667,-15.66667 34.5,-23.5 56.5,-23.5c22,0 40.83333,7.83333 56.5,23.5c15.66667,15.66667 23.5,34.5 23.5,56.5c0,22 -7.83333,40.83333 -23.5,56.5c-15.66667,15.66667 -34.5,23.5 -56.5,23.5z"></path></g></g></svg>