<svg version="1.1" xmlns="http://www.w3.org/2000/svg" xmlns:xlink="http://www.w3.org/1999/xlink" width="24px" height="24px" viewBox="0,0,256,256"><g fill="#3c4fe0" fill-rule="nonzero" stroke="none" stroke-width="1" stroke-linecap="butt" stroke-linejoin="miter" stroke-miterlimit="10" stroke-dasharray="" stroke-dashoffset="0" font-family="none" font-weight="none" font-size="none" text-anchor="none" style="mix-blend-mode: normal"><g transform="translate(0,261.33333) scale(0.26667,0.26667)"><path d="M160,-340v-380c0,-35.33333 9.16667,-63.5 27.5,-84.5c18.33333,-21 42.5,-37 72.5,-48c30,-11 64.16667,-18.33333 102.5,-22c38.33333,-3.66667 77.5,-5.5 117.5,-5.5c44,0 85.5,1.83333 124.5,5.5c39,3.66667 73,11 102,22c29,11 51.83333,27 68.5,48c16.66667,21 25,49.16667 25,84.5v380c0,39.33333 -13.5,72.5 -40.5,99.5c-27,27 -60.16667,40.5 -99.5,40.5l60,60v20h-80l-80,-80h-160l-80,80h-80v-20l60,-60c-39.33333,0 -72.5,-13.5 -99.5,-40.5c-27,-27 -40.5,-60.16667 -40.5,-99.5zM480,-800c-70.66667,0 -122.33333,4.16667 -155,12.5c-32.66667,8.33333 -55,17.5 -67,27.5h448c-10,-11.33333 -31.5,-20.83333 -64.5,-28.5c-33,-7.66667 -86.83333,-11.5 -161.5,-11.5zM240,-560h200v-120h-200zM660,-480h-420h480zM520,-560h200v-120h-200zM340,-320c17.33333,0 31.66667,-5.66667 43,-17c11.33333,-11.33333 17,-25.66667 17,-43c0,-17.33333 -5.66667,-31.66667 -17,-43c-11.33333,-11.33333 -25.66667,-17 -43,-17c-17.33333,0 -31.66667,5.66667 -43,17c-11.33333,11.33333 -17,25.66667 -17,43c0,17.33333 5.66667,31.66667 17,43c11.33333,11.33333 25.66667,17 43,17zM620,-320c17.33333,0 31.66667,-5.66667 43,-17c11.33333,-11.33333 17,-25.66667 17,-43c0,-17.33333 -5.66667,-31.66667 -17,-43c-11.33333,-11.33333 -25.66667,-17 -43,-17c-17.33333,0 -31.66667,5.66667 -43,17c-11.33333,11.33333 -17,25.66667 -17,43c0,17.33333 5.66667,31.66667 17,43c11.33333,11.33333 25.66667,17 43,17zM300,-280h360c17.33333,0 31.66667,-5.66667 43,-17c11.33333,-11.33333 17,-25.66667 17,-43v-140h-480v140c0,17.33333 5.66667,31.66667 17,43c11.33333,11.33333 25.66667,17 43,17zM480,-760h226h-448z"></path></g></g></svg>